# File created by Blade
# Date/Time:  Tue Jan 27 18:50:13 2015
#---------------------------------------------------------
:version 1.10
:name HOM
:units
  mass 1.0
  length 1.000000
  angle deg
:documentation
     Acclaim Skeleton File
:root
   axis xyz
   order TX TY TZ RX RY RZ
   position 0.000000 0.000000 0.000000
   orientation 0 0 0
:bonedata
   begin
      id 1
      name Spine_dum
      direction 0.000000 1.000000 0.000000
      length 5.195262
      axis 0.0 0.0 0.0 xyz
   end
   begin
      id 2
      name LeftUpLeg_dum
      direction 1.000000 0.000000 0.000000
      length 3.351363
      axis 0.0 0.0 0.0 xyz
   end
   begin
      id 3
      name RightUpLeg_dum
      direction -1.000000 0.000000 0.000000
      length 3.351363
      axis 0.0 0.0 0.0 xyz
   end
   begin
      id 4
      name Spine
      direction 0.000000 1.000000 0.000000
      length 0.000000
      axis 0.0 0.0 0.0 xyz
      dof rx ry rz
   end
   begin
      id 5
      name Spine_dum1
      direction 0.000000 1.000000 0.000000
      length 15.653875
      axis 0.0 0.0 0.0 xyz
   end
   begin
      id 6
      name Spine_dum2
      direction 0.000000 1.000000 0.000000
      length 10.329768
      axis 0.0 0.0 0.0 xyz
   end
   begin
      id 7
      name Spine_dum3
      direction 0.000000 1.000000 0.000000
      length 10.329768
      axis 0.0 0.0 0.0 xyz
   end
   begin
      id 8
      name Head
      direction 0.000000 1.000000 0.000000
      length 4.527550
      axis 0.0 0.0 0.0 xyz
      dof rx ry rz
   end
   begin
      id 9
      name LeftShoulder
      direction 1.000000 0.000000 0.000000
      length 6.996006
      axis 0.0 0.0 -90.0 xyz
      dof rx ry rz
   end
   begin
      id 10
      name LeftArm
      direction 1.000000 0.000000 0.000000
      length 10.209302
      axis 0.0 0.0 -90.0 xyz
      dof rx ry rz
   end
   begin
      id 11
      name LeftForeArm
      direction 1.000000 0.000000 0.000000
      length 8.563163
      axis 0.0 0.0 -90.0 xyz
      dof ry rz rx
   end
   begin
      id 12
      name LeftHand
      direction 0.000000 0.000000 0.000000
      length 0.000000
      axis 0.0 0.0 -90.0 xyz
      dof rx ry rz
   end
   begin
      id 13
      name LeftHand_dum1
      direction 0.000000 0.000000 0.000000
      length 0.000000
      axis 0.0 0.0 -90.0 xyz
   end
   begin
      id 14
      name LeftHand_dum2
      direction 1.000000 0.000000 0.000000
      length 3.937000
      axis 0.0 0.0 -90.0 xyz
   end
   begin
      id 15
      name LeftHandThumb1
      direction 0.000000 0.000000 1.000000
      length 3.937000
      axis 0.0 0.0 -90.0 xyz
      dof rx rz ry
   end
   begin
      id 16
      name RightShoulder
      direction -1.000000 0.000000 0.000000
      length 6.996006
      axis 0.0 0.0 90.0 xyz
      dof rx ry rz
   end
   begin
      id 17
      name RightArm
      direction -1.000000 0.000000 0.000000
      length 10.209302
      axis 0.0 0.0 90.0 xyz
      dof rx ry rz
   end
   begin
      id 18
      name RightForeArm
      direction -1.000000 0.000000 0.000000
      length 8.563163
      axis 0.0 0.0 90.0 xyz
      dof ry rz rx
   end
   begin
      id 19
      name RightHand
      direction 0.000000 0.000000 0.000000
      length 0.000000
      axis 0.0 0.0 90.0 xyz
      dof rx ry rz
   end
   begin
      id 20
      name RightHand_dum1
      direction 0.000000 0.000000 0.000000
      length 0.000000
      axis 0.0 0.0 90.0 xyz
   end
   begin
      id 21
      name RightHand_dum2
      direction -1.000000 0.000000 0.000000
      length 3.937000
      axis 0.0 0.0 90.0 xyz
   end
   begin
      id 22
      name RightHandThumb1
      direction 0.000000 0.000000 1.000000
      length 3.937000
      axis 0.0 0.0 90.0 xyz
      dof rx rz ry
   end
   begin
      id 23
      name LeftUpLeg
      direction 0.000000 -1.000000 0.000000
      length 16.346831
      axis 0.0 0.0 0.0 xyz
      dof rx ry rz
   end
   begin
      id 24
      name LeftLeg
      direction 0.000000 -1.000000 0.000000
      length 13.959795
      axis 0.0 0.0 0.0 xyz
      dof rx ry rz
   end
   begin
      id 25
      name LeftFoot
      direction 0.000000 -0.258819 0.965926
      length 5.165550
      axis 15.0 0.0 0.0 xyz
      dof rx ry rz
   end
   begin
      id 26
      name LeftToeBase
      direction 0.000000 0.000000 1.000000
      length 2.952750
      axis 0.0 0.0 0.0 xyz
      dof rx ry rz
   end
   begin
      id 27
      name RightUpLeg
      direction 0.000000 -1.000000 0.000000
      length 16.346831
      axis 0.0 0.0 0.0 xyz
      dof rx ry rz
   end
   begin
      id 28
      name RightLeg
      direction 0.000000 -1.000000 0.000000
      length 13.959795
      axis 0.0 0.0 0.0 xyz
      dof rx ry rz
   end
   begin
      id 29
      name RightFoot
      direction 0.000000 -0.258819 0.965926
      length 5.165550
      axis 15.0 0.0 0.0 xyz
      dof rx ry rz
   end
   begin
      id 30
      name RightToeBase
      direction 0.000000 0.000000 1.000000
      length 2.952750
      axis 0.0 0.0 0.0 xyz
      dof rx ry rz
   end
:hierarchy
   begin
      root Spine_dum LeftUpLeg_dum RightUpLeg_dum
      Spine_dum Spine
      LeftUpLeg_dum LeftUpLeg
      RightUpLeg_dum RightUpLeg
      Spine Spine_dum1 Spine_dum2 Spine_dum3
      Spine_dum1 Head
      Spine_dum2 LeftShoulder
      Spine_dum3 RightShoulder
      LeftShoulder LeftArm
      LeftArm LeftForeArm
      LeftForeArm LeftHand
      LeftHand LeftHand_dum1 LeftHand_dum2
      LeftHand_dum1 LeftHandThumb1
      RightShoulder RightArm
      RightArm RightForeArm
      RightForeArm RightHand
      RightHand RightHand_dum1 RightHand_dum2
      RightHand_dum1 RightHandThumb1
      LeftUpLeg LeftLeg
      LeftLeg LeftFoot
      LeftFoot LeftToeBase
      RightUpLeg RightLeg
      RightLeg RightFoot
      RightFoot RightToeBase
   end

# File created by Blade
# Date/Time:  Tue Jan 27 18:50:05 2015
# Frame Rate: 120.000 fps
#------------------------------------------------------
:FULLY-SPECIFIED
:DEGREES
1113
root -1.568278 31.446312 -5.981267 -12.000704 15.221473 -13.650842
Spine 12.958556 -7.898409 3.288299
Head 7.113434 -6.722594 12.171177
LeftShoulder -14.644217 15.182378 15.322928
LeftArm 13.556922 -29.798954 -68.734373
LeftForeArm -8.055162 -0.000000 122.421761
LeftHand -16.709216 -0.000000 23.483448
LeftHandThumb1 -26.253704 0.000000 33.147579
RightShoulder -13.024645 -3.456437 -4.937225
RightArm 18.741475 -36.117630 65.535390
RightForeArm -29.385901 0.000000 25.809397
RightHand -13.802000 -0.000000 12.781944
RightHandThumb1 -24.326973 -0.000000 -32.862282
LeftUpLeg -1.688104 5.114513 4.189335
LeftLeg 32.655653 -0.000000 -0.000000
LeftFoot -35.700276 17.969037 -22.116954
LeftToeBase 7.883158 -0.000000 -0.000000
RightUpLeg -82.602222 -13.264420 5.076251
RightLeg 58.441163 -0.000000 -0.000000
RightFoot -6.667535 -13.658940 12.057894
RightToeBase 5.302505 -0.000000 -0.000000
1114
root -1.570060 31.457034 -5.977746 -11.754307 15.220657 -13.499408
Spine 12.680036 -7.889046 3.112885
Head 7.298929 -6.703244 12.256859
LeftShoulder -14.631074 15.246897 15.334198
LeftArm 13.441473 -30.095308 -68.945774
LeftForeArm -7.969807 0.000000 122.425210
LeftHand -16.724474 0.000000 23.527304
LeftHandThumb1 -26.253704 0.000000 33.147579
RightShoulder -13.045740 -3.350556 -4.969425
RightArm 18.567266 -36.081178 65.747690
RightForeArm -29.401305 0.000000 25.664440
RightHand -13.804114 0.000000 12.846517
RightHandThumb1 -24.326973 -0.000000 -32.862282
LeftUpLeg -1.791384 5.360700 4.126300
LeftLeg 32.474821 -0.000000 -0.000000
LeftFoot -35.559434 17.553910 -22.295340
LeftToeBase 7.937793 -0.000000 -0.000000
RightUpLeg -82.853244 -13.336968 5.493513
RightLeg 61.301643 -0.000000 -0.000000
RightFoot -6.171366 -14.008794 11.737744
RightToeBase 5.763102 -0.000000 -0.000000
1115
root -1.570279 31.468206 -5.973725 -11.518595 15.256851 -13.333784
Spine 12.419574 -7.926571 2.918375
Head 7.464423 -6.692200 12.299647
LeftShoulder -14.706064 15.363898 15.311797
LeftArm 13.506203 -30.416107 -69.260688
LeftForeArm -7.885923 -0.000000 122.318503
LeftHand -16.694468 0.000000 23.602679
LeftHandThumb1 -26.253704 0.000000 33.147579
RightShoulder -13.042925 -3.231297 -5.020063
RightArm 18.340104 -36.003915 66.028366
RightForeArm -29.452720 0.000000 25.544830
RightHand -14.048249 -0.000000 12.634661
RightHandThumb1 -24.326973 -0.000000 -32.862282
LeftUpLeg -1.878749 5.520178 4.034334
LeftLeg 32.293742 -0.000000 -0.000000
LeftFoot -35.461173 17.107605 -22.575045
LeftToeBase 8.147447 -0.000000 -0.000000
RightUpLeg -83.025341 -13.445185 5.834426
RightLeg 64.104337 -0.000000 -0.000000
RightFoot -5.797607 -14.326387 11.371165
RightToeBase 6.180077 -0.000000 -0.000000
1116
root -1.570313 31.478566 -5.968267 -11.324515 15.307297 -13.180155
Spine 12.216482 -7.979070 2.746427
Head 7.550127 -6.661066 12.295155
LeftShoulder -14.752863 15.414130 15.208686
LeftArm 13.547422 -30.825142 -69.481648
LeftForeArm -7.793712 -0.000000 122.230699
LeftHand -16.819957 -0.000000 23.541698
LeftHandThumb1 -26.253704 0.000000 33.147579
RightShoulder -13.046081 -3.205746 -5.080047
RightArm 18.191449 -35.841166 66.272897
RightForeArm -29.579388 -0.000000 25.457783
RightHand -13.819100 -0.000000 12.704079
RightHandThumb1 -24.326973 -0.000000 -32.862282
LeftUpLeg -1.931880 5.749211 3.974542
LeftLeg 32.130498 -0.000000 -0.000000
LeftFoot -35.351394 16.620917 -22.769434
LeftToeBase 8.416085 -0.000000 -0.000000
RightUpLeg -83.117022 -13.577061 6.121887
RightLeg 66.875403 -0.000000 -0.000000
RightFoot -5.470979 -14.452425 11.081761
RightToeBase 6.105572 -0.000000 -0.000000
1117
root -1.570202 31.488322 -5.965147 -11.112454 15.389058 -13.027707
Spine 12.005809 -8.053609 2.583507
Head 7.578958 -6.644363 12.256787
LeftShoulder -14.821992 15.412678 15.108771
LeftArm 13.558757 -31.189974 -69.655248
LeftForeArm -7.800222 -0.000000 122.081402
LeftHand -16.623294 -0.000000 23.490262
LeftHandThumb1 -26.253704 0.000000 33.147579
RightShoulder -13.036708 -3.078192 -5.190760
RightArm 17.918520 -35.703144 66.611735
RightForeArm -29.626261 -0.000000 25.383835
RightHand -13.762182 -0.000000 12.755325
RightHandThumb1 -24.326973 -0.000000 -32.862282
LeftUpLeg -2.026530 5.951093 3.903376
LeftLeg 31.995008 -0.000000 -0.000000
LeftFoot -35.174109 16.180240 -22.875005
LeftToeBase 8.593424 -0.000000 -0.000000
RightUpLeg -83.183732 -13.733083 6.402203
RightLeg 69.568461 -0.000000 -0.000000
RightFoot -5.428984 -14.576515 11.095626
RightToeBase 6.394360 -0.000000 -0.000000
1118
root -1.571282 31.497252 -5.959305 -10.923717 15.481373 -12.876844
Spine 11.812572 -8.094052 2.425095
Head 7.599539 -6.661651 12.212300
LeftShoulder -14.869944 15.385996 15.010436
LeftArm 13.647835 -31.587026 -69.869030
LeftForeArm -7.566238 0.000000 121.892633
LeftHand -16.721802 0.000000 23.234939
LeftHandThumb1 -26.253704 0.000000 33.147579
RightShoulder -13.044056 -3.038431 -5.275102
RightArm 17.721212 -35.563063 66.864562
RightForeArm -29.596501 -0.000000 25.378394
RightHand -13.705240 0.000000 12.905762
RightHandThumb1 -24.326973 -0.000000 -32.862282
LeftUpLeg -2.103487 6.110122 3.828167
LeftLeg 31.873856 -0.000000 -0.000000
LeftFoot -34.994649 15.754168 -22.977772
LeftToeBase 8.653543 -0.000000 -0.000000
RightUpLeg -83.165194 -13.898040 6.624891
RightLeg 72.159208 -0.000000 -0.000000
RightFoot -5.365580 -14.686861 10.742429
RightToeBase 6.211062 -0.000000 -0.000000
1119
root -1.571741 31.504223 -5.952720 -10.733875 15.576578 -12.707397
Spine 11.619570 -8.090894 2.248843
Head 7.613218 -6.713630 12.172676
LeftShoulder -14.882000 15.296164 14.938167
LeftArm 13.704930 -31.926265 -70.010036
LeftForeArm -7.451615 -0.000000 121.707781
LeftHand -16.848545 -0.000000 23.324628
LeftHandThumb1 -26.253704 0.000000 33.147579
RightShoulder -13.047018 -3.058123 -5.346575
RightArm 17.511914 -35.407332 67.103082
RightForeArm -29.587411 -0.000000 25.455403
RightHand -13.709511 0.000000 12.952435
RightHandThumb1 -24.326973 -0.000000 -32.862282
LeftUpLeg -2.181613 6.315282 3.733263
LeftLeg 31.754328 -0.000000 -0.000000
LeftFoot -34.777880 15.349344 -22.989916
LeftToeBase 8.639263 -0.000000 -0.000000
RightUpLeg -83.107333 -14.052867 6.780694
RightLeg 74.694634 -0.000000 -0.000000
RightFoot -5.374850 -14.747351 10.420879
RightToeBase 5.978961 -0.000000 -0.000000
1120
root -1.569678 31.508615 -5.945955 -10.567023 15.683159 -12.543038
Spine 11.464934 -8.106124 2.100530
Head 7.555622 -6.785571 12.066507
LeftShoulder -14.932474 15.180580 14.852513
LeftArm 13.795720 -32.176976 -70.173310
LeftForeArm -7.334753 -0.000000 121.494988
LeftHand -16.767467 -0.000000 23.302710
LeftHandThumb1 -26.253704 0.000000 33.147579
RightShoulder -13.043727 -3.062026 -5.449415
RightArm 17.331284 -35.322316 67.293302
RightForeArm -29.493475 -0.000000 25.550907
RightHand -13.629101 -0.000000 13.129532
RightHandThumb1 -24.326973 -0.000000 -32.862282
LeftUpLeg -2.241989 6.415255 3.607264
LeftLeg 31.635291 -0.000000 -0.000000
LeftFoot -34.614394 15.084323 -22.978775
LeftToeBase 8.649376 -0.000000 -0.000000
RightUpLeg -83.002853 -14.234199 6.954356
RightLeg 77.121180 -0.000000 -0.000000
RightFoot -5.569490 -14.863195 10.406419
RightToeBase 6.004189 -0.000000 -0.000000
1121
root -1.567861 31.510858 -5.940117 -10.409672 15.799873 -12.394013
Spine 11.318191 -8.116568 1.980214
Head 7.481792 -6.878914 11.927478
LeftShoulder -14.971809 15.047205 14.764436
LeftArm 13.842523 -32.409719 -70.246123
LeftForeArm -7.299639 0.000000 121.286207
LeftHand -16.772414 -0.000000 23.173277
LeftHandThumb1 -26.253704 0.000000 33.147579
RightShoulder -13.031867 -3.006178 -5.600061
RightArm 17.107426 -35.324557 67.487161
RightForeArm -29.233704 0.000000 25.625371
RightHand -13.724858 -0.000000 12.745726
RightHandThumb1 -24.326973 -0.000000 -32.862282
LeftUpLeg -2.305447 6.406495 3.457664
LeftLeg 31.511012 -0.000000 -0.000000
LeftFoot -34.460607 15.027307 -22.877516
LeftToeBase 8.627120 -0.000000 -0.000000
RightUpLeg -82.854816 -14.421911 7.112927
RightLeg 79.394175 -0.000000 -0.000000
RightFoot -5.688682 -14.979485 10.502613
RightToeBase 5.955459 -0.000000 -0.000000
1122
root -1.564733 31.509743 -5.938134 -10.207936 15.911817 -12.215081
Spine 11.132663 -8.075582 1.852770
Head 7.417491 -6.999078 11.778075
LeftShoulder -14.941993 14.910606 14.722231
LeftArm 13.865182 -32.601375 -70.316738
LeftForeArm -7.230037 -0.000000 121.086973
LeftHand -16.688677 0.000000 23.225721
LeftHandThumb1 -26.253704 0.000000 33.147579
RightShoulder -13.033528 -2.984534 -5.730284
RightArm 16.966494 -35.446459 67.568882
RightForeArm -29.241890 -0.000000 25.697766
RightHand -13.540329 -0.000000 12.987049
RightHandThumb1 -24.326973 -0.000000 -32.862282
LeftUpLeg -2.412450 6.326071 3.240563
LeftLeg 31.377911 -0.000000 -0.000000
LeftFoot -34.332488 15.136166 -22.740743
LeftToeBase 8.442831 -0.000000 -0.000000
RightUpLeg -82.707246 -14.592476 7.174559
RightLeg 81.522733 -0.000000 -0.000000
RightFoot -5.796386 -14.814863 10.646064
RightToeBase 6.162956 -0.000000 -0.000000
1123
root -1.561906 31.507458 -5.937829 -9.975596 16.014901 -12.041494
Spine 10.906798 -8.046627 1.740343
Head 7.366235 -7.103994 11.602763
LeftShoulder -14.936651 14.814886 14.686546
LeftArm 13.885642 -32.721522 -70.372526
LeftForeArm -7.238221 -0.000000 120.943135
LeftHand -16.749580 0.000000 23.180650
LeftHandThumb1 -26.253704 0.000000 33.147579
RightShoulder -13.015499 -3.073566 -5.860136
RightArm 16.955991 -35.509206 67.576923
RightForeArm -29.121875 -0.000000 25.774843
RightHand -13.437411 -0.000000 12.933566
RightHandThumb1 -24.326973 -0.000000 -32.862282
LeftUpLeg -2.554210 6.160044 2.998211
LeftLeg 31.241017 -0.000000 -0.000000
LeftFoot -34.232931 15.383339 -22.567479
LeftToeBase 8.270131 -0.000000 -0.000000
RightUpLeg -82.571934 -14.750447 7.318630
RightLeg 83.498333 -0.000000 -0.000000
RightFoot -5.966711 -14.960762 10.627328
RightToeBase 6.213664 -0.000000 -0.000000
